<?xml version="1.0" encoding="utf-8"?>
<!-- Generator: Adobe Illustrator 26.0.0, SVG Export Plug-In . SVG Version: 6.00 Build 0)  -->
<svg fill="white" version="1.1" id="Layer_1" xmlns="http://www.w3.org/2000/svg" xmlns:xlink="http://www.w3.org/1999/xlink" x="0px" y="0px"
	 viewBox="0 0 500 420.55" style="enable-background:new 0 0 500 420.55;" xml:space="preserve">
<style type="text/css">
	.st0{display:none;fill:#FFFFFF;}
</style>
<path class="st0" d="M10.51,430.66c0-147.22,0-294.45,0-441.75c159.6,0,319.22,0,478.98,0c0,147.2,0,294.47,0,441.75
	C329.9,430.66,170.22,430.66,10.51,430.66z M156.16,377.73c0.47,0.16,0.93,0.32,1.4,0.48c0.69-0.58,1.65-1.03,2.04-1.77
	c2.99-5.7,6.3-11.29,8.7-17.23c8.07-20.01,15.49-40.28,23.77-60.2c4.67-11.23,7.75-22.46,6.79-34.72c-0.44-5.64-2.9-9.43-7.84-12
	c-13.05-6.8-31.05-2.12-41.31,7.94c-1.24,1.22-2.03,3.04-2.67,4.72c-1.44,3.76,0.19,8.22,3.84,11.17c3.2,2.58,6.45,3.04,10.04,0.61
	c1.96-1.33,4.14-2.4,6.33-3.3c4.26-1.75,6.45-0.66,5.59,3.77c-1.2,6.21-3.32,12.41-6.09,18.1c-3.34,6.85-4.97,6.86-12.04,3.62
	c-9.2-4.21-13.68-12.6-18.57-20.61c-1.51-2.47-3.33-5.39-3.27-8.06c0.24-10.64,1.01-21.28,1.92-31.89c0.32-3.7,2.59-5.39,6.81-5.83
	c10.32-1.08,20.58-2.87,30.81-4.69c4.6-0.82,9.06-2.39,14.11-3.76c-1.29,5.16-2.38,9.62-3.54,14.05c-0.61,2.32-1.63,4.61,1.02,6.43
	c2.59,1.78,4.86,0.66,7.01-0.76c4.69-3.09,9.3-6.3,13.96-9.44c10.36-6.97,19.35-15.33,26.66-25.51c4.11-5.72,3.94-11.77-1.19-15.22
	c-12.99-8.75-26.64-16.28-42.02-19.99c-26.9-6.49-53.97-7.53-81.21-2.2c-0.85,0.17-1.8-0.15-3.13-0.29
	c2.57-13.92,4.92-27.47,7.59-40.97c3.59-18.08,2.63-35.83-3.55-53.2c-2.13-6-4.74-11.83-7.3-18.15c2.01,0.14,3.68,0.16,5.32,0.38
	c12.73,1.72,25.11,4.74,37,9.72c27.27,11.42,49.77,28.64,66.14,53.53c3.47,5.28,4.98,10.8,3.8,17.62c-1.88-1.05-3.4-1.93-4.95-2.76
	c-6.75-3.64-13.62-6.32-21.16-2.22c-4.1,2.23-4.16,3.02-0.79,6.38c13.55,13.53,27.04,27.11,40.65,40.58
	c3.19,3.15,6.56,6.18,10.18,8.81c4.44,3.24,7.29,1.93,7.48-3.43c0.3-8.29,0.21-16.59,0.25-24.89c0.07-14.76-4.13-28.26-12.25-40.51
	c-14.44-21.8-32.66-39.96-53.73-55.36c-15.59-11.39-31.76-21.81-49.91-28.65c-25.53-9.62-52.24-11.94-79.26-11.72
	c-2.44,0.02-5.02,0.85-7.27,1.88c-3.79,1.75-4.99,5.46-2.98,9.13c1.81,3.3,3.74,6.66,6.22,9.46C56.85,59.53,68.21,72.2,79.79,84.65
	c6.15,6.61,8.38,14.08,6.75,22.81c-0.54,2.9-1.31,5.76-1.92,8.64c-3.62,17.32-7.54,34.59-10.65,52.01
	c-1.02,5.68,0.05,11.75,0.26,17.64c0.21,5.81,3.88,9.21,8.73,11.38c5.12,2.29,10.26,4.92,15.68,6.07c6.48,1.38,13.52,2.78,19.84,1.6
	c8.58-1.6,16.9-5.2,25-8.72c16.57-7.21,31.38-2.27,46.11,5.88c-2.33,1.24-4.75,1.98-7.17,2.68c-15.54,4.51-31.03,6.36-46.72,0.35
	c-7.39-2.83-12.79-1.02-17.18,5.61c-3.39,5.11-6.39,10.56-8.91,16.15c-4.62,10.26-9.04,20.73-7.87,32.35
	c0.38,3.76,1.36,7.9,3.4,10.97c9.01,13.55,18.86,26.55,27.74,40.19c7.24,11.12,14.67,22.33,16.79,35.93
	c0.14,0.89,0.98,1.67,1.49,2.5c0.37-0.06,0.74-0.11,1.1-0.17c0.8-4.36,1.61-8.72,2.41-13.09c0.5,0.05,0.99,0.1,1.49,0.15
	C156.16,349.62,156.16,363.68,156.16,377.73z"/>
<g>
	<path class="st0" d="M308.49,336.88c-39.19,0-78.38,0-117.57,0c0-39.19,0-78.38,0-117.57c39.18,0,78.37,0,117.57,0
		C308.49,258.5,308.49,297.69,308.49,336.88z M273.95,292.63c0.02,0.02,0.04,0.04,0.05,0.06c-0.04,0.15-0.08,0.3-0.13,0.44
		c-1.03,3.24-2.33,6.37-3.87,9.41c-2.17,4.29-4.75,8.32-7.61,12.17c-3.62,4.88-7.65,9.4-11.94,13.7c-0.08,0.08-0.16,0.14-0.25,0.23
		c-0.22-0.17-0.39-0.38-0.56-0.58c-3.63-4.01-7.1-8.14-10.42-12.41c-8.02-10.29-15.04-21.22-21.11-32.77
		c-3.48-6.63-6.62-13.41-9.43-20.35c-0.06-0.16-0.12-0.32-0.2-0.48c-0.1-0.21-0.34-0.25-0.51-0.1c-0.09,0.08-0.17,0.18-0.25,0.28
		c-2.31,2.76-4.6,5.55-6.78,8.41c-1.34,1.75-2.65,3.53-3.83,5.4c-0.22,0.34-0.42,0.7-0.63,1.04c-0.13,0.21-0.13,0.41,0,0.62
		c0.06,0.09,0.11,0.19,0.16,0.29c1.18,2.12,2.43,4.2,3.74,6.24c4.04,6.32,8.61,12.24,13.55,17.88c4.06,4.63,8.35,9.04,12.83,13.27
		c3.65,3.46,7.42,6.79,11.28,10.01c3.81,3.19,7.7,6.26,11.66,9.26c0.42,0.31,0.49,0.37,0.98,0.02c5.27-3.73,10.38-7.67,15.25-11.91
		c4.7-4.09,9.15-8.42,13.26-13.1c2.8-3.18,5.41-6.5,7.82-9.98c0.2-0.29,0.28-0.57,0.28-0.91c0.01-1.69-0.25-3.34-0.64-4.97
		c-0.48-2.03-1.17-3.99-1.96-5.92c-1.73-4.19-3.89-8.16-6.23-12.04c-0.04-0.07-0.08-0.14-0.13-0.2c-0.14-0.16-0.3-0.18-0.45-0.03
		c-0.15,0.14-0.27,0.3-0.41,0.45c-0.89,1.01-1.77,2.03-2.68,3.02c-3.15,3.43-6.54,6.61-10.13,9.58c-4.31,3.57-8.87,6.79-13.65,9.72
		c-0.09,0.06-0.19,0.1-0.29,0.15c-5.16-4.09-9.06-9.12-11.74-15.11c0.1-0.12,0.19-0.23,0.29-0.33c0.84-0.89,1.67-1.79,2.52-2.66
		c3.1-3.19,6.27-6.32,9.46-9.42c0.15-0.14,0.29-0.28,0.43-0.43c0.12-0.13,0.14-0.27,0.07-0.43c-0.03-0.06-0.05-0.11-0.08-0.17
		c-0.82-1.53-1.85-2.9-3.17-4.05c-0.37-0.32-0.76-0.61-1.15-0.89c-0.32-0.23-0.38-0.22-0.71,0.02c-0.23,0.17-0.45,0.34-0.67,0.51
		c-4.24,3.23-8.41,6.53-12.4,10.06c-1.9,1.68-3.76,3.41-5.51,5.25c-0.12,0.12-0.24,0.25-0.35,0.38c-0.12,0.13-0.14,0.28-0.06,0.43
		c0.07,0.14,0.13,0.28,0.2,0.42c2.1,4.32,4.55,8.43,7.3,12.36c4.37,6.23,9.38,11.9,14.86,17.16c0.42,0.41,0.43,0.4,0.94,0.02
		c4.43-3.39,8.76-6.89,13.03-10.48c3.24-2.72,6.44-5.48,9.62-8.27C273.7,292.82,273.83,292.73,273.95,292.63z M250.2,226.54
		c0.13,0.14,0.24,0.25,0.34,0.37c0.73,0.82,1.47,1.63,2.19,2.45c4.78,5.42,9.28,11.07,13.49,16.93
		c9.53,13.26,17.45,27.43,23.86,42.44c0.58,1.35,1.13,2.72,1.69,4.07c0.05,0.12,0.09,0.24,0.15,0.34c0.12,0.21,0.33,0.24,0.51,0.07
		c0.1-0.1,0.19-0.21,0.28-0.32c1.14-1.38,2.28-2.75,3.41-4.13c1.84-2.26,3.64-4.55,5.33-6.92c0.85-1.18,1.66-2.39,2.41-3.64
		c0.17-0.29,0.21-0.55,0.01-0.83c-0.04-0.06-0.08-0.14-0.12-0.2c-1.56-2.79-3.23-5.51-5-8.17c-4.12-6.19-8.73-12-13.7-17.53
		c-5.59-6.22-11.58-12.03-17.85-17.55c-2.98-2.62-6.01-5.16-9.1-7.64c-2.44-1.96-4.91-3.89-7.41-5.77c-0.47-0.36-0.48-0.35-0.97,0
		c-5.16,3.64-10.16,7.49-14.93,11.63c-4.93,4.27-9.6,8.82-13.89,13.73c-2.67,3.06-5.17,6.25-7.48,9.59
		c-0.06,0.09-0.12,0.18-0.18,0.27c-0.08,0.12-0.13,0.25-0.12,0.4c0.01,0.47-0.01,0.94,0.03,1.41c0.11,1.52,0.38,3.01,0.77,4.48
		c0.58,2.18,1.36,4.29,2.26,6.36c1.64,3.78,3.62,7.39,5.75,10.92c0.04,0.07,0.08,0.14,0.13,0.2c0.15,0.19,0.34,0.2,0.52,0.03
		c0.08-0.08,0.15-0.16,0.22-0.25c3.76-4.45,7.89-8.53,12.35-12.27c4.44-3.73,9.16-7.09,14.11-10.13c0.13-0.08,0.27-0.16,0.43-0.25
		c5.16,4.08,9.07,9.12,11.76,15.12c-0.11,0.13-0.2,0.24-0.29,0.34c-1.11,1.17-2.21,2.35-3.34,3.5c-2.82,2.89-5.71,5.72-8.6,8.54
		c-0.15,0.14-0.29,0.29-0.44,0.43c-0.14,0.14-0.16,0.3-0.09,0.47c0.02,0.04,0.04,0.08,0.06,0.13c1.03,1.93,2.39,3.59,4.19,4.88
		c0.51,0.37,0.58,0.28,0.98-0.02c4.28-3.25,8.5-6.57,12.54-10.12c2.04-1.79,4.02-3.63,5.9-5.59c0.56-0.59,0.59-0.51,0.22-1.28
		c-1.74-3.57-3.71-6.99-5.91-10.3c-4.67-7.04-10.19-13.37-16.27-19.22c-0.29-0.28-0.4-0.4-0.87-0.04
		c-5.4,4.13-10.66,8.43-15.83,12.85c-2.36,2.01-4.69,4.06-7.04,6.09c-0.06,0.05-0.14,0.09-0.21,0.15c-0.02-0.05-0.03-0.06-0.02-0.08
		c0.04-0.14,0.08-0.27,0.12-0.4c0.88-2.83,2-5.56,3.28-8.23c2.07-4.29,4.55-8.32,7.33-12.17c3.87-5.36,8.23-10.3,12.9-14.97
		C250.07,226.66,250.12,226.62,250.2,226.54z"/>
	<path d="M273.95,292.63c-0.12,0.1-0.24,0.19-0.36,0.29c-3.17,2.79-6.38,5.55-9.62,8.27c-4.27,3.58-8.6,7.09-13.03,10.48
		c-0.5,0.38-0.51,0.39-0.94-0.02c-5.48-5.27-10.5-10.93-14.86-17.16c-2.75-3.93-5.21-8.04-7.3-12.36c-0.07-0.14-0.14-0.28-0.2-0.42
		c-0.07-0.16-0.06-0.3,0.06-0.43c0.12-0.13,0.23-0.25,0.35-0.38c1.76-1.83,3.61-3.57,5.51-5.25c3.99-3.53,8.17-6.83,12.4-10.06
		c0.22-0.17,0.45-0.34,0.67-0.51c0.33-0.24,0.39-0.25,0.71-0.02c0.39,0.29,0.78,0.58,1.15,0.89c1.31,1.15,2.35,2.51,3.17,4.05
		c0.03,0.06,0.06,0.11,0.08,0.17c0.08,0.16,0.05,0.31-0.07,0.43c-0.14,0.15-0.29,0.29-0.43,0.43c-3.19,3.1-6.36,6.22-9.46,9.42
		c-0.85,0.88-1.68,1.77-2.52,2.66c-0.1,0.1-0.18,0.21-0.29,0.33c2.69,5.99,6.59,11.02,11.74,15.11c0.1-0.06,0.2-0.1,0.29-0.15
		c4.77-2.92,9.34-6.14,13.65-9.72c3.59-2.97,6.97-6.16,10.13-9.58c0.91-0.99,1.79-2.01,2.68-3.02c0.13-0.15,0.26-0.31,0.41-0.45
		c0.15-0.14,0.31-0.13,0.45,0.03c0.05,0.06,0.09,0.13,0.13,0.2c2.34,3.88,4.5,7.85,6.23,12.04c0.79,1.93,1.48,3.89,1.96,5.92
		c0.39,1.63,0.65,3.28,0.64,4.97c0,0.34-0.09,0.63-0.28,0.91c-2.41,3.48-5.03,6.8-7.82,9.98c-4.11,4.68-8.56,9.01-13.26,13.1
		c-4.87,4.24-9.98,8.18-15.25,11.91c-0.49,0.35-0.57,0.29-0.98-0.02c-3.96-2.99-7.86-6.07-11.66-9.26
		c-3.86-3.23-7.62-6.56-11.28-10.01c-4.48-4.23-8.77-8.64-12.83-13.27c-4.94-5.64-9.51-11.56-13.55-17.88
		c-1.31-2.04-2.56-4.12-3.74-6.24c-0.05-0.1-0.1-0.19-0.16-0.29c-0.13-0.21-0.13-0.41,0-0.62c0.21-0.35,0.42-0.7,0.63-1.04
		c1.18-1.87,2.49-3.65,3.83-5.4c2.19-2.86,4.47-5.65,6.78-8.41c0.08-0.1,0.16-0.2,0.25-0.28c0.17-0.15,0.41-0.11,0.51,0.1
		c0.08,0.15,0.14,0.32,0.2,0.48c2.81,6.94,5.95,13.72,9.43,20.35c6.06,11.55,13.09,22.48,21.11,32.77c3.32,4.26,6.8,8.4,10.42,12.41
		c0.18,0.19,0.34,0.4,0.56,0.58c0.09-0.08,0.18-0.15,0.25-0.23c4.29-4.3,8.32-8.82,11.94-13.7c2.86-3.85,5.44-7.88,7.61-12.17
		c1.54-3.03,2.84-6.16,3.87-9.41c0.05-0.15,0.09-0.3,0.13-0.44C273.98,292.67,273.96,292.65,273.95,292.63z"/>
	<path d="M250.2,226.54c-0.09,0.08-0.13,0.12-0.18,0.16c-4.67,4.67-9.03,9.61-12.9,14.97c-2.78,3.86-5.26,7.89-7.33,12.17
		c-1.29,2.67-2.4,5.4-3.28,8.23c-0.04,0.13-0.08,0.27-0.12,0.4c0,0.01,0.01,0.03,0.02,0.08c0.08-0.05,0.15-0.09,0.21-0.15
		c2.35-2.03,4.68-4.07,7.04-6.09c5.17-4.41,10.43-8.72,15.83-12.85c0.47-0.36,0.58-0.25,0.87,0.04
		c6.08,5.85,11.59,12.18,16.27,19.22c2.19,3.3,4.17,6.73,5.91,10.3c0.38,0.77,0.35,0.69-0.22,1.28c-1.88,1.96-3.86,3.8-5.9,5.59
		c-4.04,3.54-8.26,6.87-12.54,10.12c-0.4,0.3-0.47,0.39-0.98,0.02c-1.79-1.29-3.15-2.94-4.19-4.88c-0.02-0.04-0.05-0.08-0.06-0.13
		c-0.07-0.18-0.05-0.34,0.09-0.47c0.15-0.14,0.29-0.29,0.44-0.43c2.9-2.82,5.78-5.65,8.6-8.54c1.13-1.16,2.23-2.33,3.34-3.5
		c0.1-0.1,0.18-0.21,0.29-0.34c-2.69-6-6.6-11.04-11.76-15.12c-0.16,0.1-0.3,0.17-0.43,0.25c-4.95,3.03-9.66,6.39-14.11,10.13
		c-4.46,3.75-8.59,7.83-12.35,12.27c-0.07,0.08-0.14,0.17-0.22,0.25c-0.18,0.17-0.37,0.16-0.52-0.03c-0.05-0.06-0.09-0.13-0.13-0.2
		c-2.12-3.53-4.1-7.14-5.75-10.92c-0.9-2.07-1.68-4.18-2.26-6.36c-0.39-1.47-0.66-2.96-0.77-4.48c-0.03-0.47-0.02-0.94-0.03-1.41
		c0-0.15,0.04-0.28,0.12-0.4c0.06-0.09,0.12-0.18,0.18-0.27c2.31-3.34,4.81-6.53,7.48-9.59c4.29-4.92,8.96-9.46,13.89-13.73
		c4.78-4.13,9.77-7.99,14.93-11.63c0.5-0.35,0.5-0.35,0.97,0c2.5,1.88,4.97,3.81,7.41,5.77c3.09,2.48,6.13,5.03,9.1,7.64
		c6.28,5.52,12.27,11.33,17.85,17.55c4.97,5.53,9.58,11.34,13.7,17.53c1.77,2.66,3.44,5.38,5,8.17c0.04,0.07,0.07,0.14,0.12,0.2
		c0.2,0.28,0.16,0.54-0.01,0.83c-0.75,1.25-1.56,2.46-2.41,3.64c-1.7,2.37-3.5,4.66-5.33,6.92c-1.13,1.39-2.27,2.76-3.41,4.13
		c-0.09,0.11-0.18,0.22-0.28,0.32c-0.18,0.17-0.39,0.14-0.51-0.07c-0.06-0.11-0.1-0.23-0.15-0.34c-0.56-1.36-1.12-2.72-1.69-4.07
		c-6.41-15.01-14.33-29.18-23.86-42.44c-4.22-5.87-8.71-11.51-13.49-16.93c-0.73-0.82-1.46-1.64-2.19-2.45
		C250.44,226.79,250.33,226.68,250.2,226.54z"/>
</g>
<path d="M141.53,412.85c-0.14-0.23-0.13-0.48-0.12-0.58c2.23-35.16,1.5-39.58,0.02-48.02c-0.01-0.06-0.08-0.09-0.12-0.05
	c-1.45,1.64-3.39,13.91-3.88,14.46c-0.24,0.27-0.54,0.42-0.54,0.42c-0.67,0.35-1.1,0.26-1.28,0.19c-0.42-0.14-0.89-0.7-1.4-1.97
	c-0.16-0.39-0.34-1.06-0.41-1.48c-2.58-15.49-11.06-28.31-19.35-41.03c-10.28-15.78-21.67-30.83-32.1-46.51
	c-2.37-3.56-3.5-8.35-3.93-12.69c-1.36-13.45,3.76-25.57,9.11-37.44c2.91-6.47,6.39-12.77,10.31-18.69
	c5.08-7.67,11.33-9.76,19.89-6.49c18.16,6.95,36.09,4.82,54.08-0.41c2.77-0.8,5.53-1.65,8.19-3.04c0.05-0.03,0.05-0.1,0-0.13
	c-17.01-9.39-34.12-15.06-53.25-6.74c-9.37,4.07-19,8.24-28.93,10.1c-7.31,1.36-15.46-0.25-22.96-1.85
	c-6.27-1.34-12.22-4.38-18.15-7.03c-5.62-2.51-9.86-6.44-10.11-13.17c-0.25-6.81-1.48-13.84-0.3-20.41
	c3.6-20.15,8.14-40.14,12.33-60.19c0.7-3.34,1.59-6.65,2.22-10c1.89-10.11-0.7-18.75-7.81-26.4C39.62,59.3,26.48,44.63,13.43,29.89
	c-2.87-3.24-5.1-7.12-7.19-10.94C3.91,14.69,5.3,10.4,9.68,8.37c2.6-1.2,5.59-2.16,8.41-2.18c31.27-0.25,62.18,2.43,91.73,13.57
	c21,7.91,39.71,19.97,57.76,33.16c24.39,17.82,45.47,38.84,62.19,64.07c9.39,14.17,14.26,29.81,14.18,46.88
	c-0.05,9.6,0.07,19.21-0.28,28.8c-0.23,6.2-3.52,7.72-8.66,3.97c-4.19-3.05-8.1-6.55-11.78-10.2
	c-15.75-15.58-31.36-31.31-47.05-46.96c-3.9-3.89-3.84-4.81,0.91-7.38c8.74-4.74,16.68-1.65,24.49,2.57
	c1.76,0.95,3.5,1.95,5.63,3.15c0.04,0.02,0.1,0,0.11-0.05c1.34-7.85-0.42-14.21-4.42-20.29c-18.94-28.81-44.98-48.74-76.54-61.96
	c-13.76-5.76-28.09-9.26-42.83-11.25c-1.87-0.25-3.78-0.28-6.05-0.44c-0.05,0-0.09,0.05-0.07,0.09c2.95,7.28,5.95,13.99,8.41,20.9
	c7.15,20.11,8.25,40.64,4.1,61.57c-3.09,15.59-5.81,31.26-8.78,47.34c-0.01,0.04,0.02,0.08,0.06,0.08c1.5,0.16,2.57,0.52,3.55,0.33
	c31.52-6.17,62.86-4.97,93.99,2.54c17.8,4.29,33.6,13,48.63,23.13c5.94,4,6.12,10.99,1.37,17.62
	c-8.45,11.78-18.87,21.46-30.85,29.52c-5.39,3.63-10.73,7.34-16.15,10.92c-2.49,1.65-5.12,2.95-8.12,0.88
	c-3.06-2.11-1.88-4.75-1.18-7.44c1.34-5.1,2.58-10.22,4.07-16.14c0.01-0.05-0.04-0.1-0.09-0.08c-5.8,1.58-10.93,3.38-16.22,4.32
	c-12.26,2.18-19.41,2.14-35.66,5.43c-1.89,0.38-3.52,0.73-4.75,1.01c-0.67,0.15-1.22,0.62-1.47,1.25c-0.46,1.15-1.05,2.68-1.65,4.48
	c0,0,0,0.01,0,0.01c-2.4,10.48-1.85,20.41-2.23,36.9c-0.07,3.09,2.04,6.47,3.79,9.33c5.65,9.27,10.84,18.98,21.49,23.85
	c8.19,3.74,10.07,3.74,13.93-4.19c3.21-6.59,5.66-13.76,7.05-20.95c0.99-5.12-1.53-6.39-6.47-4.37c-2.54,1.04-5.06,2.28-7.33,3.82
	c-4.16,2.82-7.91,2.29-11.62-0.7c-4.22-3.41-6.11-8.58-4.44-12.92c0.74-1.94,1.65-4.05,3.09-5.46c11.87-11.65,32.7-17.06,47.81-9.19
	c5.71,2.98,8.56,7.36,9.07,13.89c1.1,14.19-2.46,27.19-7.86,40.18c-9.58,23.05-18.18,46.52-27.51,69.68
	c-2.78,6.88-6.61,13.35-10.07,19.95c-0.01,0.03-0.22,0.29-0.45,0.59c-0.5,0.66-0.58,0.74-0.66,0.82c-0.2,0.19-0.52,0.43-1.06,0.59
	C142.49,413.41,141.8,413.29,141.53,412.85z"/>
<path d="M358.47,412.85c0.14-0.23,0.13-0.48,0.12-0.58c-2.23-35.16-1.5-39.58-0.02-48.02c0.01-0.06,0.08-0.09,0.12-0.05
	c1.45,1.64,3.39,13.91,3.88,14.46c0.24,0.27,0.54,0.42,0.54,0.42c0.67,0.35,1.1,0.26,1.28,0.19c0.42-0.14,0.89-0.7,1.4-1.97
	c0.16-0.39,0.34-1.06,0.41-1.48c2.58-15.49,11.06-28.31,19.35-41.03c10.28-15.78,21.67-30.83,32.1-46.51
	c2.37-3.56,3.5-8.35,3.93-12.69c1.36-13.45-3.76-25.57-9.11-37.44c-2.91-6.47-6.39-12.77-10.31-18.69
	c-5.08-7.67-11.33-9.76-19.89-6.49c-18.16,6.95-36.09,4.82-54.08-0.41c-2.77-0.8-5.53-1.65-8.19-3.04c-0.05-0.03-0.05-0.1,0-0.13
	c17.01-9.39,34.12-15.06,53.25-6.74c9.37,4.07,19,8.24,28.93,10.1c7.31,1.36,15.46-0.25,22.96-1.85c6.27-1.34,12.22-4.38,18.15-7.03
	c5.62-2.51,9.86-6.44,10.11-13.17c0.25-6.81,1.48-13.84,0.3-20.41c-3.6-20.15-8.14-40.14-12.33-60.19c-0.7-3.34-1.59-6.65-2.22-10
	c-1.89-10.11,0.7-18.75,7.81-26.4c13.41-14.41,26.55-29.07,39.59-43.81c2.87-3.24,5.1-7.12,7.19-10.94
	c2.33-4.26,0.94-8.55-3.45-10.57c-2.6-1.2-5.59-2.16-8.41-2.18c-31.27-0.25-62.18,2.43-91.73,13.57
	c-21,7.91-39.71,19.97-57.76,33.16c-24.39,17.82-45.47,38.84-62.19,64.07c-9.39,14.17-14.26,29.81-14.18,46.88
	c0.05,9.6-0.07,19.21,0.28,28.8c0.23,6.2,3.52,7.72,8.66,3.97c4.19-3.05,8.1-6.55,11.78-10.2c15.75-15.58,31.36-31.31,47.05-46.96
	c3.9-3.89,3.84-4.81-0.91-7.38c-8.74-4.74-16.68-1.65-24.49,2.57c-1.76,0.95-3.5,1.95-5.63,3.15c-0.04,0.02-0.1,0-0.11-0.05
	c-1.34-7.85,0.42-14.21,4.42-20.29c18.94-28.81,44.98-48.74,76.54-61.96c13.76-5.76,28.09-9.26,42.83-11.25
	c1.87-0.25,3.78-0.28,6.05-0.44c0.05,0,0.09,0.05,0.07,0.09c-2.95,7.28-5.95,13.99-8.41,20.9c-7.15,20.11-8.25,40.64-4.1,61.57
	c3.09,15.59,5.81,31.26,8.78,47.34c0.01,0.04-0.02,0.08-0.06,0.08c-1.5,0.16-2.57,0.52-3.55,0.33c-31.52-6.17-62.86-4.97-93.99,2.54
	c-17.8,4.29-33.6,13-48.63,23.13c-5.94,4-6.12,10.99-1.37,17.62c8.45,11.78,18.87,21.46,30.85,29.52
	c5.39,3.63,10.73,7.34,16.15,10.92c2.49,1.65,5.12,2.95,8.12,0.88c3.06-2.11,1.88-4.75,1.18-7.44c-1.34-5.1-2.58-10.22-4.07-16.14
	c-0.01-0.05,0.04-0.1,0.09-0.08c5.8,1.58,10.93,3.38,16.22,4.32c12.26,2.18,19.41,2.14,35.66,5.43c1.89,0.38,3.52,0.73,4.75,1.01
	c0.67,0.15,1.22,0.62,1.47,1.25c0.46,1.15,1.05,2.68,1.65,4.48c0,0,0,0.01,0,0.01c2.4,10.48,1.85,20.41,2.23,36.9
	c0.07,3.09-2.04,6.47-3.79,9.33c-5.65,9.27-10.84,18.98-21.49,23.85c-8.19,3.74-10.07,3.74-13.93-4.19
	c-3.21-6.59-5.66-13.76-7.05-20.95c-0.99-5.12,1.53-6.39,6.47-4.37c2.54,1.04,5.06,2.28,7.33,3.82c4.16,2.82,7.91,2.29,11.62-0.7
	c4.22-3.41,6.11-8.58,4.44-12.92c-0.74-1.94-1.65-4.05-3.09-5.46c-11.87-11.65-32.7-17.06-47.81-9.19
	c-5.71,2.98-8.56,7.36-9.07,13.89c-1.1,14.19,2.46,27.19,7.86,40.18c9.58,23.05,18.18,46.52,27.51,69.68
	c2.78,6.88,6.61,13.35,10.07,19.95c0.01,0.03,0.22,0.29,0.45,0.59c0.5,0.66,0.58,0.74,0.66,0.82c0.2,0.19,0.52,0.43,1.06,0.59
	C357.51,413.41,358.2,413.29,358.47,412.85z"/>
</svg>
