<?xml version="1.0" encoding="utf-8"?>
<!-- Generator: Adobe Illustrator 26.0.0, SVG Export Plug-In . SVG Version: 6.00 Build 0)  -->
<svg version="1.1" id="Layer-1" xmlns="http://www.w3.org/2000/svg" xmlns:xlink="http://www.w3.org/1999/xlink" x="0px" y="0px"
	 viewBox="0 0 864 864" style="enable-background:new 0 0 864 864;" xml:space="preserve">
<style type="text/css">
	.st0{fill-rule:evenodd;clip-rule:evenodd;fill:#80ffd8;}
	.st1{fill:#80ffd8;}
</style>
<g>
	<path class="st0" d="M564.4,36.2c0,0,47.5,97.8,25.9,189.9s-116.5,177-116.5,177s200-51.8,208.6-178.4
		C691,98.1,564.4,36.2,564.4,36.2z"/>
	<path class="st0" d="M564.4,36.2c0,0,47.5,97.8,25.9,189.9s-116.5,177-116.5,177s200-51.8,208.6-178.4
		C691,98.1,564.4,36.2,564.4,36.2z"/>
</g>
<g>
	<path class="st0" d="M559.3,580.8c0,0-20.1,54.7-69.1,20.9c-48.9-33.8-16.5-137.4,86.3-144.6s124.6-9,182-56.1
		c31.6-26,65.5-82,65.5-82s23,150.3-62.6,199.3c-85.6,48.9-174.1-34.5-216.5-24.5c-42.4,10.1-51.8,46-34.5,71.9
		S559.3,580.8,559.3,580.8z"/>
	<path class="st0" d="M559.3,580.8c0,0-20.1,54.7-69.1,20.9c-48.9-33.8-16.5-137.4,86.3-144.6s124.6-9,182-56.1
		c31.6-26,65.5-82,65.5-82s23,150.3-62.6,199.3c-85.6,48.9-174.1-34.5-216.5-24.5c-42.4,10.1-51.8,46-34.5,71.9
		S559.3,580.8,559.3,580.8z"/>
</g>
<g>
	<path class="st1" d="M432,658.5c29.1,25.2,59.3,8.6,59.3,8.6s-28.4-10.4-42.4-23.7c-14-13.3-16.9-29.9-16.9-29.9
		s-2.9,16.5-16.9,29.9c-14,13.3-42.4,23.7-42.4,23.7S402.9,683.7,432,658.5z M432,754.2c7.6-27,32.4-52.2,32.4-52.2
		s-10.8-4.3-20.1-11.5c-9.4-7.2-12.2-12.9-12.2-12.9s-2.9,5.8-12.2,12.9S399.6,702,399.6,702S424.4,727.2,432,754.2z M339,643.6
		c12,0.9,35.3-2.3,60.6-32.6c36.7-43.9,23-109.3-47.5-153.9c-70.5-44.6-167.6-13.7-233.1-96.4c-65.5-82.7,10.8-210.8,10.8-210.8
		s-7.2,87.8,37.4,152.5c44.6,64.7,110.8,97.8,178.4,122.3c67.6,24.5,86.3,84.9,86.3,84.9s18.7-60.4,86.3-84.9
		c67.6-24.5,133.8-57.5,178.4-122.3s37.4-152.5,37.4-152.5s76.2,128,10.8,210.8c-65.5,82.7-162.6,51.8-233.1,96.4
		c-70.5,44.6-84.2,110.1-47.5,153.9c25.4,30.3,48.6,33.5,60.6,32.6c7.2-8.6,12.6-14.4,14.9-15.3c12.2-5,36.7,2.2,36.7,2.2
		s-19.4,14.4-59.7,64C476.6,744.1,432,828.2,432,828.2s-44.6-84.2-84.9-133.8c-40.3-49.6-59.7-64-59.7-64s24.5-7.2,36.7-2.2
		C326.4,629.2,331.8,635,339,643.6z"/>
	<path class="st1" d="M432,658.5c29.1,25.2,59.3,8.6,59.3,8.6s-28.4-10.4-42.4-23.7c-14-13.3-16.9-29.9-16.9-29.9
		s-2.9,16.5-16.9,29.9c-14,13.3-42.4,23.7-42.4,23.7S402.9,683.7,432,658.5z M432,754.2c7.6-27,32.4-52.2,32.4-52.2
		s-10.8-4.3-20.1-11.5c-9.4-7.2-12.2-12.9-12.2-12.9s-2.9,5.8-12.2,12.9S399.6,702,399.6,702S424.4,727.2,432,754.2z M339,643.6
		c12,0.9,35.3-2.3,60.6-32.6c36.7-43.9,23-109.3-47.5-153.9c-70.5-44.6-167.6-13.7-233.1-96.4c-65.5-82.7,10.8-210.8,10.8-210.8
		s-7.2,87.8,37.4,152.5c44.6,64.7,110.8,97.8,178.4,122.3c67.6,24.5,86.3,84.9,86.3,84.9s18.7-60.4,86.3-84.9
		c67.6-24.5,133.8-57.5,178.4-122.3s37.4-152.5,37.4-152.5s76.2,128,10.8,210.8c-65.5,82.7-162.6,51.8-233.1,96.4
		c-70.5,44.6-84.2,110.1-47.5,153.9c25.4,30.3,48.6,33.5,60.6,32.6c7.2-8.6,12.6-14.4,14.9-15.3c12.2-5,36.7,2.2,36.7,2.2
		s-19.4,14.4-59.7,64C476.6,744.1,432,828.2,432,828.2s-44.6-84.2-84.9-133.8c-40.3-49.6-59.7-64-59.7-64s24.5-7.2,36.7-2.2
		C326.4,629.2,331.8,635,339,643.6z"/>
</g>
<g>
	<path class="st0" d="M299.6,36.2c0,0-47.5,97.8-25.9,189.9s116.5,177,116.5,177s-200-51.8-208.6-178.4
		C173,98.1,299.6,36.2,299.6,36.2z"/>
	<path class="st0" d="M299.6,36.2c0,0-47.5,97.8-25.9,189.9s116.5,177,116.5,177s-200-51.8-208.6-178.4
		C173,98.1,299.6,36.2,299.6,36.2z"/>
</g>
<g>
	<path class="st0" d="M304.7,580.8c0,0,20.1,54.7,69.1,20.9c48.9-33.8,16.5-137.4-86.3-144.6s-124.6-9-182-56.1
		C73.8,375,40,319,40,319s-23,150.3,62.6,199.3c85.6,48.9,174.1-34.5,216.5-24.5c42.4,10.1,51.8,46,34.5,71.9
		S304.7,580.8,304.7,580.8z"/>
	<path class="st0" d="M304.7,580.8c0,0,20.1,54.7,69.1,20.9c48.9-33.8,16.5-137.4-86.3-144.6s-124.6-9-182-56.1
		C73.8,375,40,319,40,319s-23,150.3,62.6,199.3c85.6,48.9,174.1-34.5,216.5-24.5c42.4,10.1,51.8,46,34.5,71.9
		S304.7,580.8,304.7,580.8z"/>
</g>
</svg>
