<?xml version="1.0" encoding="utf-8"?>
<!-- Generator: Adobe Illustrator 26.0.0, SVG Export Plug-In . SVG Version: 6.00 Build 0)  -->
<svg version="1.1" id="Layer-1" xmlns="http://www.w3.org/2000/svg" xmlns:xlink="http://www.w3.org/1999/xlink" x="0px" y="0px"
	 viewBox="0 0 864 864" style="enable-background:new 0 0 864 864;" xml:space="preserve">
<style type="text/css">
	.st0{fill:#A0E9E5;}
</style>
<g>
	<path class="st0" d="M363,216.2c-20.5,9.8-35.3,12.3-35.3,12.3s34.6-48,59.2-92C411.5,92.7,432,37,432,37s20.5,55.7,45.1,99.6
		s59.2,92,59.2,92s-14.8-2.5-35.3-12.3c-20.3,28.9-68.1,103.8-69,167.5C431.1,320.1,383.3,245.2,363,216.2z M432,160
		c-11.8,15.4-24.6,27.4-37.1,36.8c12.6,21.1,35.8,64.6,37.1,100.3c1.3-35.7,24.5-79.2,37.1-100.3C456.6,187.4,443.8,175.4,432,160z"
		/>
	<path class="st0" d="M363,216.2c-20.5,9.8-35.3,12.3-35.3,12.3s34.6-48,59.2-92C411.5,92.7,432,37,432,37s20.5,55.7,45.1,99.6
		s59.2,92,59.2,92s-14.8-2.5-35.3-12.3c-20.3,28.9-68.1,103.8-69,167.5C431.1,320.1,383.3,245.2,363,216.2z M432,160
		c-11.8,15.4-24.6,27.4-37.1,36.8c12.6,21.1,35.8,64.6,37.1,100.3c1.3-35.7,24.5-79.2,37.1-100.3C456.6,187.4,443.8,175.4,432,160z"
		/>
</g>
<g>
	<polygon class="st0" points="490.7,534.7 456,518.6 432,443.1 408,518.6 373.3,534.7 369.9,496.6 423.3,438 345.9,455 314.5,433 
		345.9,411 423.3,427.9 369.9,369.4 373.3,331.3 408,347.4 432,422.9 456,347.4 490.7,331.3 494.1,369.4 440.7,427.9 518.1,411 
		549.5,433 518.1,455 440.7,438 494.1,496.6 	"/>
	<polygon class="st0" points="490.7,534.7 456,518.6 432,443.1 408,518.6 373.3,534.7 369.9,496.6 423.3,438 345.9,455 314.5,433 
		345.9,411 423.3,427.9 369.9,369.4 373.3,331.3 408,347.4 432,422.9 456,347.4 490.7,331.3 494.1,369.4 440.7,427.9 518.1,411 
		549.5,433 518.1,455 440.7,438 494.1,496.6 	"/>
</g>
<g>
	<path class="st0" d="M209.8,384.4c-1.7,22.6-7,36.7-7,36.7s-24.3-53.9-50.1-97.2C127,280.6,89,235,89,235s58.4,10.1,108.8,10.7
		s109.2-5.3,109.2-5.3s-9.6,11.6-28.3,24.4c14.9,32,55.9,110.9,110.5,143.5C333.7,377.3,245,381.3,209.8,384.4z M195.6,296.5
		c7.4,17.9,11.4,35,13.3,50.5c24.6-0.4,73.8,1.3,105.4,18c-30.3-19-56.3-60.8-68.3-82.3C231.6,288.9,214.8,293.9,195.6,296.5z"/>
	<path class="st0" d="M209.8,384.4c-1.7,22.6-7,36.7-7,36.7s-24.3-53.9-50.1-97.2C127,280.6,89,235,89,235s58.4,10.1,108.8,10.7
		s109.2-5.3,109.2-5.3s-9.6,11.6-28.3,24.4c14.9,32,55.9,110.9,110.5,143.5C333.7,377.3,245,381.3,209.8,384.4z M195.6,296.5
		c7.4,17.9,11.4,35,13.3,50.5c24.6-0.4,73.8,1.3,105.4,18c-30.3-19-56.3-60.8-68.3-82.3C231.6,288.9,214.8,293.9,195.6,296.5z"/>
</g>
<g>
	<path class="st0" d="M278.8,601.1c18.8,12.8,28.3,24.4,28.3,24.4s-58.9-5.9-109.2-5.3S89,631,89,631s37.9-45.6,63.7-88.9
		c25.7-43.3,50.1-97.2,50.1-97.2s5.3,14.1,7,36.7c35.2,3.1,124,7,179.5-24C334.6,490.2,293.7,569.1,278.8,601.1z M195.6,569.5
		c19.2,2.6,36.1,7.6,50.4,13.7c12-21.5,38-63.3,68.3-82.3c-31.6,16.8-80.8,18.4-105.4,18C207,534.4,203,551.6,195.6,569.5z"/>
	<path class="st0" d="M278.8,601.1c18.8,12.8,28.3,24.4,28.3,24.4s-58.9-5.9-109.2-5.3S89,631,89,631s37.9-45.6,63.7-88.9
		c25.7-43.3,50.1-97.2,50.1-97.2s5.3,14.1,7,36.7c35.2,3.1,124,7,179.5-24C334.6,490.2,293.7,569.1,278.8,601.1z M195.6,569.5
		c19.2,2.6,36.1,7.6,50.4,13.7c12-21.5,38-63.3,68.3-82.3c-31.6,16.8-80.8,18.4-105.4,18C207,534.4,203,551.6,195.6,569.5z"/>
</g>
<g>
	<path class="st0" d="M501,649.8c20.5-9.8,35.3-12.3,35.3-12.3s-34.6,48-59.2,92C452.5,773.4,432,829,432,829s-20.5-55.7-45.1-99.6
		c-24.6-43.9-59.2-92-59.2-92s14.8,2.5,35.3,12.3c20.3-28.9,68.1-103.8,69-167.5C432.9,545.9,480.7,620.8,501,649.8z M432,706
		c11.8-15.4,24.6-27.4,37.1-36.8c-12.6-21.1-35.8-64.6-37.1-100.3c-1.3,35.7-24.5,79.2-37.1,100.3C407.4,678.6,420.2,690.6,432,706z
		"/>
	<path class="st0" d="M501,649.8c20.5-9.8,35.3-12.3,35.3-12.3s-34.6,48-59.2,92C452.5,773.4,432,829,432,829s-20.5-55.7-45.1-99.6
		c-24.6-43.9-59.2-92-59.2-92s14.8,2.5,35.3,12.3c20.3-28.9,68.1-103.8,69-167.5C432.9,545.9,480.7,620.8,501,649.8z M432,706
		c11.8-15.4,24.6-27.4,37.1-36.8c-12.6-21.1-35.8-64.6-37.1-100.3c-1.3,35.7-24.5,79.2-37.1,100.3C407.4,678.6,420.2,690.6,432,706z
		"/>
</g>
<g>
	<path class="st0" d="M654.2,481.6c1.7-22.6,7-36.7,7-36.7s24.3,53.9,50.1,97.2C737,585.4,775,631,775,631s-58.4-10.1-108.8-10.7
		c-50.4-0.7-109.2,5.3-109.2,5.3s9.6-11.6,28.3-24.4c-14.9-32-55.9-110.9-110.5-143.5C530.3,488.7,619,484.7,654.2,481.6z
		 M668.4,569.5c-7.4-17.9-11.4-35-13.3-50.5c-24.6,0.4-73.8-1.3-105.4-18c30.3,19,56.3,60.8,68.3,82.3
		C632.4,577.1,649.2,572.1,668.4,569.5z"/>
	<path class="st0" d="M654.2,481.6c1.7-22.6,7-36.7,7-36.7s24.3,53.9,50.1,97.2C737,585.4,775,631,775,631s-58.4-10.1-108.8-10.7
		c-50.4-0.7-109.2,5.3-109.2,5.3s9.6-11.6,28.3-24.4c-14.9-32-55.9-110.9-110.5-143.5C530.3,488.7,619,484.7,654.2,481.6z
		 M668.4,569.5c-7.4-17.9-11.4-35-13.3-50.5c-24.6,0.4-73.8-1.3-105.4-18c30.3,19,56.3,60.8,68.3,82.3
		C632.4,577.1,649.2,572.1,668.4,569.5z"/>
</g>
<g>
	<path class="st0" d="M585.2,264.9c-18.8-12.8-28.3-24.4-28.3-24.4s58.9,5.9,109.2,5.3S775,235,775,235s-37.9,45.6-63.7,88.9
		c-25.7,43.3-50.1,97.2-50.1,97.2s-5.3-14.1-7-36.7c-35.2-3.1-124-7-179.5,24C529.4,375.7,570.3,296.9,585.2,264.9z M668.4,296.5
		c-19.2-2.6-36.1-7.6-50.4-13.7c-12,21.5-38,63.3-68.3,82.3c31.6-16.8,80.8-18.4,105.4-18C657,331.5,661,314.4,668.4,296.5z"/>
	<path class="st0" d="M585.2,264.9c-18.8-12.8-28.3-24.4-28.3-24.4s58.9,5.9,109.2,5.3S775,235,775,235s-37.9,45.6-63.7,88.9
		c-25.7,43.3-50.1,97.2-50.1,97.2s-5.3-14.1-7-36.7c-35.2-3.1-124-7-179.5,24C529.4,375.7,570.3,296.9,585.2,264.9z M668.4,296.5
		c-19.2-2.6-36.1-7.6-50.4-13.7c-12,21.5-38,63.3-68.3,82.3c31.6-16.8,80.8-18.4,105.4-18C657,331.5,661,314.4,668.4,296.5z"/>
</g>
</svg>
