<?xml version="1.0" encoding="utf-8"?>
<!-- Generator: Adobe Illustrator 26.0.0, SVG Export Plug-In . SVG Version: 6.00 Build 0)  -->
<svg version="1.1" id="Layer-1" xmlns="http://www.w3.org/2000/svg" xmlns:xlink="http://www.w3.org/1999/xlink" x="0px" y="0px"
	 viewBox="0 0 864 864" style="enable-background:new 0 0 864 864;" xml:space="preserve">
<style type="text/css">
	.st0{fill-rule:evenodd;clip-rule:evenodd;fill:#A756CC;}
</style>
<g>
	<path class="st0" d="M252.1,519.2c0,0,40.1,72.5,108.1,21.6c68-50.9,34.7-200.2-83-210.3C59,311.7,88.3,625.5,88.3,625.5
		S6.8,527.7,42.2,366.1c35.4-161.6,142.6-236,142.6-236s-35.1,52.3-42.4,90.6c-3.7,19.2-3.2,50.1-3.2,50.1s77.8-66.4,157.7-76.7
		c79.8-10.3,154.4,36.8,154.4,36.8s-83.2-1-73.2,83.3s156.1,130.1,223.7,33.3c125.4-179.6-161-311.1-161-311.1
		s125.4-21.7,247.7,89.8s133.1,241.5,133.1,241.5s-27.7-56.5-57.3-82c-14.8-12.8-41.8-27.9-41.8-27.9S741,358.4,710,432.7
		C679.1,507,600.9,548,600.9,548s42.5-71.6-35.6-105c-78.1-33.5-190.7,70.1-140.7,177.1c92.8,198.4,349.9,16.2,349.9,16.2
		S730.7,755.6,573,805.8c-157.7,50.2-275.7-5.5-275.7-5.5s62.8,4.3,99.7-8.6c18.5-6.4,45-22.3,45-22.3s-96.4-34.2-145.3-98.2
		S252.1,519.2,252.1,519.2z"/>
	<path class="st0" d="M252.1,519.2c0,0,34.1,72.5,102.1,21.6c68-50.9,40.7-200.2-77-210.3C59,311.7,88.3,625.5,88.3,625.5
		S6.8,527.7,42.2,366.1c35.4-161.6,142.6-236,142.6-236s-35.1,52.3-42.4,90.6c-3.7,19.2-3.2,50.1-3.2,50.1s77.8-66.4,157.7-76.7
		c79.8-10.3,154.4,36.8,154.4,36.8s-77.2-1-67.2,83.3s150,130.1,217.7,33.3c125.4-179.6-161-311.1-161-311.1s125.4-21.7,247.7,89.8
		s133.1,241.5,133.1,241.5s-27.7-56.5-57.3-82c-14.8-12.8-41.8-27.9-41.8-27.9S741,358.4,710,432.7C679.1,507,600.9,548,600.9,548
		s42.5-65.6-35.6-99c-78.1-33.5-190.7,64.1-140.7,171.1c92.8,198.4,349.9,16.2,349.9,16.2S730.7,755.6,573,805.8
		c-157.7,50.2-275.7-5.5-275.7-5.5s62.8,4.3,99.7-8.6c18.5-6.4,45-22.3,45-22.3s-96.4-34.2-145.3-98.2S252.1,519.2,252.1,519.2z"/>
</g>
</svg>
