<?xml version="1.0" encoding="utf-8"?>
<!-- Generator: Adobe Illustrator 26.0.0, SVG Export Plug-In . SVG Version: 6.00 Build 0)  -->
<svg version="1.1" id="Layer-1" xmlns="http://www.w3.org/2000/svg" xmlns:xlink="http://www.w3.org/1999/xlink" x="0px" y="0px"
	 viewBox="0 0 864 864" style="enable-background:new 0 0 864 864;" xml:space="preserve">
<style type="text/css">
	.st0{fill-rule:evenodd;clip-rule:evenodd;fill:#DA9640;}
</style>
<g>
	<path class="st0" d="M185.9,262C281.1,148.5,432,35.9,432,35.9S585.6,150.5,680.6,265c95.1,114.6,123.1,167,123.1,167
		s-30,48.8-76.1,112.5c-16.7-43-51.6-129.4-103.1-216.1C551.4,205.3,432,90.8,432,90.8s-57.3,48.8-103.6,120.7
		s-60.9,130.4-60.9,130.4L432,204.1c0,0,60.9,56.1,97.5,108.5s56.1,97.5,56.1,97.5L453.9,521L421,488.1l95.1-95.1
		c0,0-11-25.6-34.1-56.1c-23.2-30.5-50-45.1-50-45.1s-70.7,42.7-108.5,73.1s-81.7,86.5-81.7,86.5s-28-48.8-42.7-96.3
		C190,325.3,185.9,262,185.9,262z"/>
	<path class="st0" d="M185.9,262C281.1,148.5,432,35.9,432,35.9S585.6,150.5,680.6,265c95.1,114.6,123.1,167,123.1,167
		s-30,48.8-76.1,112.5c-16.7-43-51.6-129.4-103.1-216.1C551.4,205.3,432,90.8,432,90.8s-57.3,48.8-103.6,120.7
		s-60.9,130.4-60.9,130.4L432,204.1c0,0,60.9,56.1,97.5,108.5s56.1,97.5,56.1,97.5L453.9,521L421,488.1l95.1-95.1
		c0,0-11-25.6-34.1-56.1c-23.2-30.5-50-45.1-50-45.1s-70.7,42.7-108.5,73.1s-81.7,86.5-81.7,86.5s-28-48.8-42.7-96.3
		C190,325.3,185.9,262,185.9,262z"/>
</g>
<g>
	<path class="st0" d="M678.1,601.8C582.9,715.4,432,827.9,432,827.9S278.4,713.3,183.4,598.8s-123.1-167-123.1-167
		s30-48.8,76.1-112.5c16.7,43,51.6,129.4,103.1,216.1C312.6,658.5,432,773.1,432,773.1s57.3-48.8,103.6-120.7S596.5,522,596.5,522
		L432,659.7c0,0-60.9-56.1-97.5-108.5s-56.1-97.5-56.1-97.5l131.6-110.9l32.9,32.9l-95.1,95.1c0,0,11,25.6,34.1,56.1
		c23.2,30.5,50,45.1,50,45.1s70.7-42.7,108.5-73.1c37.8-30.5,81.7-86.5,81.7-86.5s28,48.8,42.7,96.3
		C674,538.5,678.1,601.8,678.1,601.8z"/>
	<path class="st0" d="M678.1,601.8C582.9,715.4,432,827.9,432,827.9S278.4,713.3,183.4,598.8s-123.1-167-123.1-167
		s30-48.8,76.1-112.5c16.7,43,51.6,129.4,103.1,216.1C312.6,658.5,432,773.1,432,773.1s57.3-48.8,103.6-120.7S596.5,522,596.5,522
		L432,659.7c0,0-60.9-56.1-97.5-108.5s-56.1-97.5-56.1-97.5l131.6-110.9l32.9,32.9l-95.1,95.1c0,0,11,25.6,34.1,56.1
		c23.2,30.5,50,45.1,50,45.1s70.7-42.7,108.5-73.1c37.8-30.5,81.7-86.5,81.7-86.5s28,48.8,42.7,96.3
		C674,538.5,678.1,601.8,678.1,601.8z"/>
</g>
</svg>
