<?xml version="1.0" encoding="utf-8"?>
<!-- Generator: Adobe Illustrator 26.0.0, SVG Export Plug-In . SVG Version: 6.00 Build 0)  -->
<svg version="1.1" id="Layer-1" xmlns="http://www.w3.org/2000/svg" xmlns:xlink="http://www.w3.org/1999/xlink" x="0px" y="0px"
	 viewBox="0 0 864 864" style="enable-background:new 0 0 864 864;" xml:space="preserve">
<style type="text/css">
	.st0{fill:#21E1EB;}
	.st1{fill-rule:evenodd;clip-rule:evenodd;fill:#21E1EB;}
</style>
<g>
	<path class="st0" d="M425.9,36c218.7,0,402.5,177.3,402.5,396c0,218.7-183,396-401.7,396c-94.8,0-181.9-33.3-249.9-88.8
		c0,0,250.7,101.9,374.8,12.1c124.1-89.8,111.2-279.9,1.6-347.8c-105.3-65.3-202.8-10-231.9-29.4c-41.6-27.8-24.5-102.1,67-115.1
		c91.4-13.1,259.6,33.5,305.4,187c42.8,143.5-58,280.9-58,280.9s161.2-121.2,110.2-311.9c-59.6-222.9-269.4-283.3-411.5-235.2
		C191.2,228.3,180.9,311.6,147,315.2c-52,5.6-75-18.4-73.9-48.6C76.4,176.4,273.6,36,425.9,36z"/>
	<path class="st0" d="M425.9,36c218.7,0,402.5,177.3,402.5,396c0,218.7-183,396-401.7,396c-94.8,0-181.9-33.3-249.9-88.8
		c0,0,250.7,101.9,374.8,12.1c124.1-89.8,111.2-279.9,1.6-347.8c-105.3-65.3-202.8-10-231.9-29.4c-41.6-27.8-24.5-102.1,67-115.1
		c91.4-13.1,259.6,33.5,305.4,187c42.8,143.5-41,263.5-41,263.5s144.3-103.8,93.3-294.5c-59.6-222.9-269.4-283.3-411.5-235.2
		C191.2,228.3,180.9,311.6,147,315.2c-52,5.6-75-18.4-73.9-48.6C76.4,176.4,273.6,36,425.9,36z"/>
</g>
<g>
	<circle class="st1" cx="92.7" cy="439.3" r="57.2"/>
	<circle class="st1" cx="92.7" cy="439.3" r="57.2"/>
</g>
<g>
	<circle class="st1" cx="163.8" cy="612.4" r="40.8"/>
	<circle class="st1" cx="163.8" cy="612.4" r="40.8"/>
</g>
<g>
	<path class="st1" d="M552.4,692.5c0,0-83.8,73.6-163.3,36.7c-79.2-36.7-58.3-144.2,1.6-156c75.1-14.7,65.3,47.4,83.3,66.1
		s86.5,30.2,89.8-31.8c3.3-62.1-69.4-152.7-172.3-118.4c-102.9,34.3-148.4,174.2-53.1,245.8C459.4,825.6,552.4,692.5,552.4,692.5z"
		/>
	<path class="st1" d="M552.4,692.5c0,0-83.8,73.6-163.3,36.7c-79.2-36.7-58.3-144.2,1.6-156c75.1-14.7,65.3,47.4,83.3,66.1
		s86.5,30.2,89.8-31.8c3.3-62.1-69.4-152.7-172.3-118.4c-102.9,34.3-148.4,174.2-53.1,245.8C459.4,825.6,552.4,692.5,552.4,692.5z"
		/>
</g>
</svg>
