<?xml version="1.0" encoding="utf-8"?>
<!-- Generator: Adobe Illustrator 26.0.0, SVG Export Plug-In . SVG Version: 6.00 Build 0)  -->
<svg version="1.1" id="Layer-1" xmlns="http://www.w3.org/2000/svg" xmlns:xlink="http://www.w3.org/1999/xlink" x="0px" y="0px"
	 viewBox="0 0 864 864" style="enable-background:new 0 0 864 864;" xml:space="preserve">
<style type="text/css">
	.st0{fill-rule:evenodd;clip-rule:evenodd;fill:#ff9999;}
</style>
<g>
	<path class="st0" d="M330.3,514.4c0,0,54.8-103.9,150.2-53.7s49.1,125.1,28,143.3c-21.1,18.3-49.1,24-49.1,24s36.5-63.4-8-102.2
		C406.8,487,330.3,514.4,330.3,514.4z"/>
	<path class="st0" d="M330.3,514.4c0,0,54.8-103.9,150.2-53.7s49.1,125.1,28,143.3c-21.1,18.3-49.1,24-49.1,24s36.5-63.4-8-102.2
		C406.8,487,330.3,514.4,330.3,514.4z"/>
</g>
<g>
	<path class="st0" d="M536.5,295.1c-13.1,33.7-10.3,66.2,8.6,89.1c18.8,22.8,30.8,56.5,30.8,56.5s-36-13.7-69.1-83.4s0-149,0-149
		s-40,20.6-70.8,65.7s5.1,97.6,5.1,97.6s-52.5-42.3-32.5-95.4s77.7-69.7,77.7-115.9S415.4,34.8,415.4,34.8s4,30.3-18.3,79.9
		c-22.3,49.7-49.1,52-79.4,124.5s53.1,128.5,162.2,174.7C589,460.2,618.1,551.5,565,620s-179.9,64.5-206.7,20.6
		c-25.5-41.7,28.6-94.2,28.6-94.2s-26.3-4.6-49.1-1.7s-77.7,52.5-4.6,121.1s238.1,24,295.8-43.4c52.3-61.1,14.3-193,14.3-193
		s113.1,75.4,64,147.3C658.1,648.6,569,678.9,513,713.7s-81.1,60.5-81.1,60.5s-25.1-25.7-81.1-60.5s-145-65.1-194.1-137
		c-49.1-72,57.1-153.7,57.1-153.7s-29.7,25.1-32,95.9s99.4,130.2,99.4,130.2s-50.2-82.2-12.6-157.6c37.7-75.4,145-84.5,145-84.5
		s-82.2-33.1-115.3-64c-33.1-30.8-30.8-89.1-30.8-89.1s-10.3,46.8-49.1,87.9s-102,86.2-106.8,161.6
		c-6.2,97.3,74.2,170.7,147.9,201.6C333.2,736,432,826.8,432,826.8s98.8-90.8,172.4-121.6c73.7-30.8,159.3-104.7,147.9-201.6
		c-9.6-81.5-103.9-107.4-139.9-157c-36-49.7-45.7-102.8-45.7-102.8S549.6,261.4,536.5,295.1z"/>
	<path class="st0" d="M536.5,295.1c-13.1,33.7-10.3,66.2,8.6,89.1c18.8,22.8,30.8,56.5,30.8,56.5s-36-13.7-69.1-83.4s0-149,0-149
		s-40,20.6-70.8,65.7s5.1,97.6,5.1,97.6s-52.5-42.3-32.5-95.4s77.7-69.7,77.7-115.9S415.4,34.8,415.4,34.8s4,30.3-18.3,79.9
		c-22.3,49.7-49.1,52-79.4,124.5s53.1,128.5,162.2,174.7C589,460.2,618.1,551.5,565,620s-179.9,64.5-206.7,20.6
		c-25.5-41.7,28.6-94.2,28.6-94.2s-26.3-4.6-49.1-1.7s-77.7,52.5-4.6,121.1s238.1,24,295.8-43.4c52.3-61.1,14.3-193,14.3-193
		s113.1,75.4,64,147.3C658.1,648.6,569,678.9,513,713.7s-81.1,60.5-81.1,60.5s-25.1-25.7-81.1-60.5s-145-65.1-194.1-137
		c-49.1-72,57.1-153.7,57.1-153.7s-29.7,25.1-32,95.9s99.4,130.2,99.4,130.2s-50.2-82.2-12.6-157.6c37.7-75.4,145-84.5,145-84.5
		s-82.2-33.1-115.3-64c-33.1-30.8-30.8-89.1-30.8-89.1s-10.3,46.8-49.1,87.9s-102,86.2-106.8,161.6
		c-6.2,97.3,74.2,170.7,147.9,201.6C333.2,736,432,826.8,432,826.8s98.8-90.8,172.4-121.6c73.7-30.8,159.3-104.7,147.9-201.6
		c-9.6-81.5-103.9-107.4-139.9-157c-36-49.7-45.7-102.8-45.7-102.8S549.6,261.4,536.5,295.1z"/>
</g>
</svg>
